<?xml version="1.0" encoding="UTF-8"?>
<!DOCTYPE svg PUBLIC "-//W3C//DTD SVG 1.1//EN" "http://www.w3.org/Graphics/SVG/1.1/DTD/svg11.dtd">
<svg xmlns="http://www.w3.org/2000/svg" version="1.1" width="500px" height="500px" style="shape-rendering:geometricPrecision; text-rendering:geometricPrecision; image-rendering:optimizeQuality; fill-rule:evenodd; clip-rule:evenodd" xmlns:xlink="http://www.w3.org/1999/xlink">
<g><path style="opacity:1" fill="#000000" d="M -0.5,-0.5 C 166.167,-0.5 332.833,-0.5 499.5,-0.5C 499.5,166.167 499.5,332.833 499.5,499.5C 332.833,499.5 166.167,499.5 -0.5,499.5C -0.5,332.833 -0.5,166.167 -0.5,-0.5 Z"/></g>
<g><path style="opacity:1" fill="#f93030" d="M 72.5,219.5 C 91.1973,217.59 104.031,225.257 111,242.5C 111.667,247.833 111.667,253.167 111,258.5C 104.208,276.251 95.7081,293.084 85.5,309C 80.5871,311.587 76.4204,310.753 73,306.5C 64.2633,291.693 56.5966,276.36 50,260.5C 46.0171,240.462 53.5171,226.795 72.5,219.5 Z"/></g>
<g><path style="opacity:1" fill="#080100" d="M 75.5,233.5 C 86.0447,231.855 93.5447,235.855 98,245.5C 100.486,255.726 97.319,263.559 88.5,269C 69.8617,273.028 61.0284,265.528 62,246.5C 64.4424,239.888 68.9424,235.555 75.5,233.5 Z"/></g>
<g><path style="opacity:1" fill="#f5f5f5" d="M 152.5,233.5 C 159.724,232.597 166.224,234.264 172,238.5C 173.176,242.26 172.01,245.093 168.5,247C 165.178,246.595 161.845,245.762 158.5,244.5C 155.864,244.306 154.197,245.472 153.5,248C 153.82,249.653 154.82,250.653 156.5,251C 161.323,251.83 165.989,253.164 170.5,255C 177.305,262.921 176.971,270.587 169.5,278C 158.035,284.065 148.701,281.732 141.5,271C 142.316,267.686 144.316,265.519 147.5,264.5C 151.197,266.55 154.863,268.55 158.5,270.5C 162.94,270.231 164.273,268.064 162.5,264C 157.768,262.534 153.102,260.867 148.5,259C 139.577,248.882 140.91,240.382 152.5,233.5 Z"/></g>
<g><path style="opacity:1" fill="#f8f8f8" d="M 345.5,234.5 C 353.507,234.334 361.507,234.5 369.5,235C 378.705,239.248 381.372,246.082 377.5,255.5C 383.543,273.374 377.043,281.707 358,280.5C 353.833,280.333 349.667,280.167 345.5,280C 345,279.5 344.5,279 344,278.5C 343.333,264.5 343.333,250.5 344,236.5C 344.717,235.956 345.217,235.289 345.5,234.5 Z"/></g>
<g><path style="opacity:1" fill="#f7f7f7" d="M 306.5,235.5 C 309.272,235.22 311.772,235.887 314,237.5C 314.498,240.817 314.665,244.15 314.5,247.5C 323.99,246.138 326.657,249.638 322.5,258C 319.854,258.497 317.187,258.664 314.5,258.5C 314.335,261.85 314.502,265.183 315,268.5C 316.786,270.099 318.953,270.933 321.5,271C 323.793,279.699 320.46,282.699 311.5,280C 307.667,278.833 305.167,276.333 304,272.5C 303.501,267.845 303.334,263.179 303.5,258.5C 299.42,258.919 297.42,257.086 297.5,253C 297.42,248.914 299.42,247.081 303.5,247.5C 303.335,244.15 303.502,240.817 304,237.5C 304.995,236.934 305.828,236.267 306.5,235.5 Z"/></g>
<g><path style="opacity:1" fill="#f72f2f" d="M 76.5,241.5 C 86.3874,241.217 90.8874,245.884 90,255.5C 87.2248,261.099 82.7248,263.265 76.5,262C 67.232,255.171 67.232,248.338 76.5,241.5 Z"/></g>
<g><path style="opacity:1" fill="#6c6c6c" d="M 355.5,245.5 C 355.5,253.167 355.5,260.833 355.5,268.5C 359.5,268.5 363.5,268.5 367.5,268.5C 363.366,269.485 359.032,269.818 354.5,269.5C 354.174,261.316 354.508,253.316 355.5,245.5 Z"/></g>
<g><path style="opacity:1" fill="#050505" d="M 355.5,245.5 C 359.182,245.335 362.848,245.501 366.5,246C 367.406,247.699 367.739,249.533 367.5,251.5C 360.512,250.648 358.178,253.481 360.5,260C 367.505,259.369 369.838,262.202 367.5,268.5C 363.5,268.5 359.5,268.5 355.5,268.5C 355.5,260.833 355.5,253.167 355.5,245.5 Z"/></g>
<g><path style="opacity:1" fill="#f8f8f8" d="M 181.5,247.5 C 185.287,246.814 188.454,247.814 191,250.5C 196.835,246.146 202.168,246.812 207,252.5C 213.333,245.833 219.667,245.833 226,252.5C 226.973,254.392 227.64,256.392 228,258.5C 228.924,265.608 228.591,272.608 227,279.5C 224,280.833 221,280.833 218,279.5C 216.745,272.941 216.078,266.274 216,259.5C 213.733,258.065 211.733,258.398 210,260.5C 209.667,266.5 209.333,272.5 209,278.5C 205.667,281.167 202.333,281.167 199,278.5C 198.667,272.5 198.333,266.5 198,260.5C 195.667,257.833 193.333,257.833 191,260.5C 190.667,266.5 190.333,272.5 190,278.5C 186.667,281.167 183.333,281.167 180,278.5C 179.333,268.833 179.333,259.167 180,249.5C 180.717,248.956 181.217,248.289 181.5,247.5 Z"/></g>
<g><path style="opacity:1" fill="#fafafa" d="M 242.5,247.5 C 246.675,247.188 250.675,247.855 254.5,249.5C 257.807,247.316 261.307,246.983 265,248.5C 265.667,258.5 265.667,268.5 265,278.5C 261.135,281.398 257.635,281.065 254.5,277.5C 244.247,282.468 237.08,279.468 233,268.5C 231.292,259.252 234.459,252.252 242.5,247.5 Z"/></g>
<g><path style="opacity:1" fill="#f7f7f7" d="M 272.5,247.5 C 275.187,247.336 277.854,247.503 280.5,248C 281.126,248.75 281.626,249.584 282,250.5C 284.133,248.147 286.8,247.147 290,247.5C 295.257,247.089 297.257,249.422 296,254.5C 293.924,258.558 290.757,259.558 286.5,257.5C 284.617,257.876 283.117,258.876 282,260.5C 282.106,267.279 281.273,273.779 279.5,280C 276.331,280.978 273.497,280.478 271,278.5C 270.333,268.833 270.333,259.167 271,249.5C 271.717,248.956 272.217,248.289 272.5,247.5 Z"/></g>
<g><path style="opacity:1" fill="#f9f9f9" d="M 385.5,247.5 C 389.007,246.994 392.174,247.66 395,249.5C 395.333,255.167 395.667,260.833 396,266.5C 399.843,270.729 403.177,270.395 406,265.5C 406.333,259.833 406.667,254.167 407,248.5C 410.565,246.947 413.899,247.28 417,249.5C 417.667,259.167 417.667,268.833 417,278.5C 412.932,281.325 409.099,280.992 405.5,277.5C 395.244,282.627 388.411,279.627 385,268.5C 384.205,261.42 384.372,254.42 385.5,247.5 Z"/></g>
<g><path style="opacity:1" fill="#f4f4f4" d="M 430.5,246.5 C 436.287,246.085 441.787,247.085 447,249.5C 448.041,252.636 447.207,255.136 444.5,257C 441.655,256.951 438.822,256.451 436,255.5C 432.398,255.721 431.898,256.888 434.5,259C 447.666,259.457 451.833,265.624 447,277.5C 438.394,283.13 430.061,282.797 422,276.5C 421.542,273.904 422.375,271.737 424.5,270C 428.09,269.704 431.59,270.204 435,271.5C 436.167,271.167 437.333,270.833 438.5,270.5C 434.318,269.495 430.318,267.995 426.5,266C 420.216,257.781 421.549,251.281 430.5,246.5 Z"/></g>
<g><path style="opacity:1" fill="#111111" d="M 246.5,258.5 C 253.745,258.555 255.745,261.722 252.5,268C 246.24,270.412 243.407,268.245 244,261.5C 245.045,260.627 245.878,259.627 246.5,258.5 Z"/></g>
<g><path style="opacity:1" fill="#f82f2f" d="M 38.5,278.5 C 43.5111,278.334 48.5111,278.501 53.5,279C 54.627,280.753 55.627,282.587 56.5,284.5C 53.5535,285.321 50.5535,285.821 47.5,286C 45.714,286.785 44.214,287.951 43,289.5C 41.2568,297.772 39.7568,306.105 38.5,314.5C 39.552,314.649 40.552,314.483 41.5,314C 48.5,308.167 55.5,302.333 62.5,296.5C 64.5014,298.487 65.3348,300.82 65,303.5C 60.8333,307 56.6667,310.5 52.5,314C 63.8585,312.268 72.6919,316.101 79,325.5C 84.0733,319.683 88.9066,313.683 93.5,307.5C 92.5072,304.469 93.5072,302.136 96.5,300.5C 103.785,305.159 111.785,307.159 120.5,306.5C 120.138,300.218 118.804,294.218 116.5,288.5C 115.335,287.416 114.002,286.583 112.5,286C 109.5,285.667 106.5,285.333 103.5,285C 104.627,283.247 105.627,281.413 106.5,279.5C 111.467,278.338 116.467,278.171 121.5,279C 124,280.167 125.833,282 127,284.5C 131.422,306.69 134.422,329.023 136,351.5C 135.215,353.286 134.049,354.786 132.5,356C 98.2518,357.653 63.9184,357.986 29.5,357C 25.5758,354.657 23.5758,351.157 23.5,346.5C 26.9214,326.541 30.0881,306.541 33,286.5C 34.2433,283.424 36.0767,280.757 38.5,278.5 Z"/></g>
<g><path style="opacity:1" fill="#b4b4b4" d="M 161.5,300.5 C 163.591,300.318 165.591,300.652 167.5,301.5C 168.747,303.006 168.747,304.506 167.5,306C 170.167,307.667 170.167,309.333 167.5,311C 165.527,311.495 163.527,311.662 161.5,311.5C 161.5,307.833 161.5,304.167 161.5,300.5 Z"/></g>
<g><path style="opacity:1" fill="#b8b8b8" d="M 181.5,301.5 C 180.432,302.434 179.099,302.768 177.5,302.5C 177.5,303.5 177.5,304.5 177.5,305.5C 178.833,305.5 180.167,305.5 181.5,305.5C 180.993,306.859 179.993,307.859 178.5,308.5C 179.5,309.167 180.5,309.833 181.5,310.5C 179.604,311.466 177.604,311.799 175.5,311.5C 175.5,307.833 175.5,304.167 175.5,300.5C 177.735,300.205 179.735,300.539 181.5,301.5 Z"/></g>
<g><path style="opacity:1" fill="#c3c3c3" d="M 221.5,300.5 C 224.247,300.187 226.914,300.52 229.5,301.5C 228.675,302.386 227.675,302.719 226.5,302.5C 225.833,314.5 225.167,314.5 224.5,302.5C 222.821,302.715 221.821,302.048 221.5,300.5 Z"/></g>
<g><path style="opacity:1" fill="#b3b3b3" d="M 235.5,300.5 C 239.07,299.893 241.737,301.06 243.5,304C 243.05,305.285 242.383,306.452 241.5,307.5C 242.167,308.5 242.833,309.5 243.5,310.5C 242.998,311.521 242.332,311.688 241.5,311C 239.332,306.301 238.332,306.468 238.5,311.5C 237.5,311.5 236.5,311.5 235.5,311.5C 235.5,307.833 235.5,304.167 235.5,300.5 Z"/></g>
<g><path style="opacity:1" fill="#b8b8b8" d="M 284.5,301.5 C 283.432,302.434 282.099,302.768 280.5,302.5C 280.5,303.5 280.5,304.5 280.5,305.5C 281.833,305.5 283.167,305.5 284.5,305.5C 283.993,306.859 282.993,307.859 281.5,308.5C 282.5,309.167 283.5,309.833 284.5,310.5C 282.604,311.466 280.604,311.799 278.5,311.5C 278.5,307.833 278.5,304.167 278.5,300.5C 280.735,300.205 282.735,300.539 284.5,301.5 Z"/></g>
<g><path style="opacity:1" fill="#c9c9c9" d="M 291.5,300.5 C 293.388,302.988 294.055,305.988 293.5,309.5C 295.288,309.215 296.955,309.548 298.5,310.5C 296.257,311.474 293.924,311.808 291.5,311.5C 291.5,307.833 291.5,304.167 291.5,300.5 Z"/></g>
<g><path style="opacity:1" fill="#cfcfcf" d="M 344.5,309.5 C 345.978,309.238 347.311,309.571 348.5,310.5C 346.604,311.466 344.604,311.799 342.5,311.5C 342.335,308.15 342.502,304.817 343,301.5C 343.183,304.365 343.683,307.031 344.5,309.5 Z"/></g>
<g><path style="opacity:1" fill="#818181" d="M 344.5,309.5 C 343.683,307.031 343.183,304.365 343,301.5C 342.502,304.817 342.335,308.15 342.5,311.5C 341.518,308.038 341.185,304.371 341.5,300.5C 342.5,300.5 343.5,300.5 344.5,300.5C 344.5,303.5 344.5,306.5 344.5,309.5 Z"/></g>
<g><path style="opacity:1" fill="#b4b4b4" d="M 354.5,300.5 C 355.5,300.5 356.5,300.5 357.5,300.5C 357.5,303.5 357.5,306.5 357.5,309.5C 358.822,309.67 359.989,309.337 361,308.5C 361.182,305.774 361.682,303.107 362.5,300.5C 363.655,303.446 363.821,306.446 363,309.5C 360.333,312.167 357.667,312.167 355,309.5C 354.502,306.518 354.335,303.518 354.5,300.5 Z"/></g>
<g><path style="opacity:1" fill="#cfcfcf" d="M 383.5,300.5 C 384.787,301.871 385.453,303.705 385.5,306C 385.167,307.833 384.833,309.667 384.5,311.5C 383.511,307.893 383.177,304.226 383.5,300.5 Z"/></g>
<g><path style="opacity:1" fill="#bebebe" d="M 395.5,300.5 C 402.575,301.327 404.242,304.827 400.5,311C 394,312.5 391.5,310 393,303.5C 393.698,302.309 394.531,301.309 395.5,300.5 Z"/></g>
<g><path style="opacity:1" fill="#bababa" d="M 189.5,300.5 C 195.344,300.98 195.678,302.147 190.5,304C 194.223,305.259 195.223,307.592 193.5,311C 191.421,311.808 189.421,311.641 187.5,310.5C 189.167,309.833 190.833,309.167 192.5,308.5C 188.817,306.794 187.817,304.127 189.5,300.5 Z"/></g>
<g><path style="opacity:1" fill="#bdbdbd" d="M 327.5,300.5 C 334.807,300.945 336.807,304.445 333.5,311C 326.495,312.324 323.995,309.49 326,302.5C 326.717,301.956 327.217,301.289 327.5,300.5 Z"/></g>
<g><path style="opacity:1" fill="#5b5b5b" d="M 200.5,302.5 C 201.5,302.5 202.5,302.5 203.5,302.5C 203.5,305.5 203.5,308.5 203.5,311.5C 202.965,308.366 201.965,305.366 200.5,302.5 Z"/></g>
<g><path style="opacity:1" fill="#b0b0b0" d="M 203.5,311.5 C 203.5,308.5 203.5,305.5 203.5,302.5C 202.5,302.5 201.5,302.5 200.5,302.5C 202.635,300.631 205.302,299.964 208.5,300.5C 208.5,301.5 208.5,302.5 208.5,303.5C 207.5,303.5 206.5,303.5 205.5,303.5C 206.036,306.698 205.369,309.365 203.5,311.5 Z"/></g>
<g><path style="opacity:1" fill="#060606" d="M 238.5,303.5 C 240.337,303.639 240.67,304.306 239.5,305.5C 238.702,305.043 238.369,304.376 238.5,303.5 Z"/></g>
<g><path style="opacity:1" fill="#b2b2b2" d="M 252.5,300.5 C 254.124,300.36 255.29,301.027 256,302.5C 257.523,305.491 258.023,308.491 257.5,311.5C 256.532,310.511 255.365,309.844 254,309.5C 252.213,310.563 250.379,311.063 248.5,311C 249.935,307.527 251.268,304.027 252.5,300.5 Z"/></g>
<g><path style="opacity:1" fill="#121212" d="M 328.5,302.5 C 332.473,303.075 333.473,305.242 331.5,309C 330.216,309.684 329.049,309.517 328,308.5C 327.322,306.402 327.489,304.402 328.5,302.5 Z"/></g>
<g><path style="opacity:1" fill="#5b5b5b" d="M 369.5,302.5 C 370.5,302.5 371.5,302.5 372.5,302.5C 372.5,305.5 372.5,308.5 372.5,311.5C 371.965,308.366 370.965,305.366 369.5,302.5 Z"/></g>
<g><path style="opacity:1" fill="#b0b0b0" d="M 372.5,311.5 C 372.5,308.5 372.5,305.5 372.5,302.5C 371.5,302.5 370.5,302.5 369.5,302.5C 371.635,300.631 374.302,299.964 377.5,300.5C 377.5,301.5 377.5,302.5 377.5,303.5C 376.5,303.5 375.5,303.5 374.5,303.5C 375.036,306.698 374.369,309.365 372.5,311.5 Z"/></g>
<g><path style="opacity:1" fill="#151515" d="M 396.5,302.5 C 397.496,302.414 398.329,302.748 399,303.5C 399.495,305.473 399.662,307.473 399.5,309.5C 394.161,309.177 393.161,306.843 396.5,302.5 Z"/></g>
<g><path style="opacity:1" fill="#595959" d="M 181.5,301.5 C 182.043,301.56 182.376,301.893 182.5,302.5C 181.271,303.281 179.938,303.781 178.5,304C 179.737,304.232 180.737,304.732 181.5,305.5C 180.167,305.5 178.833,305.5 177.5,305.5C 177.5,304.5 177.5,303.5 177.5,302.5C 179.099,302.768 180.432,302.434 181.5,301.5 Z"/></g>
<g><path style="opacity:1" fill="#595959" d="M 284.5,301.5 C 285.043,301.56 285.376,301.893 285.5,302.5C 284.271,303.281 282.938,303.781 281.5,304C 282.737,304.232 283.737,304.732 284.5,305.5C 283.167,305.5 281.833,305.5 280.5,305.5C 280.5,304.5 280.5,303.5 280.5,302.5C 282.099,302.768 283.432,302.434 284.5,301.5 Z"/></g>
<g><path style="opacity:1" fill="#b0b0b0" d="M 416.5,300.5 C 418.414,303.684 419.08,307.351 418.5,311.5C 414.957,311.128 412.79,309.128 412,305.5C 411.505,307.473 411.338,309.473 411.5,311.5C 410.5,311.5 409.5,311.5 408.5,311.5C 408.5,308.167 408.5,304.833 408.5,301.5C 409.873,301.343 411.207,301.51 412.5,302C 413.794,304.087 414.961,306.254 416,308.5C 416.497,305.854 416.664,303.187 416.5,300.5 Z"/></g>
<g><path style="opacity:1" fill="#bdbdbd" d="M 263.5,300.5 C 264.496,300.414 265.329,300.748 266,301.5C 267.037,308.565 268.37,308.899 270,302.5C 270.893,301.289 271.726,301.289 272.5,302.5C 271.5,305.167 270.5,307.833 269.5,310.5C 268.675,311.386 267.675,311.719 266.5,311.5C 265.699,307.765 264.699,304.099 263.5,300.5 Z"/></g>
<g><path style="opacity:1" fill="#060606" d="M 163.5,307.5 C 164.675,307.281 165.675,307.614 166.5,308.5C 164.948,309.798 163.948,309.465 163.5,307.5 Z"/></g>
<g><path style="opacity:1" fill="#c0c0c0" d="M 314.5,300.5 C 317.166,300.066 318.333,301.066 318,303.5C 316.817,302.269 315.651,302.269 314.5,303.5C 316.36,304.939 318.027,306.605 319.5,308.5C 317.841,311.433 315.507,312.1 312.5,310.5C 313.833,309.833 315.167,309.167 316.5,308.5C 312.325,306.473 311.658,303.806 314.5,300.5 Z"/></g>
<g><path style="opacity:1" fill="#070100" d="M 123.5,325.5 C 123.5,326.5 123.5,327.5 123.5,328.5C 110.989,328.829 98.6554,328.495 86.5,327.5C 91.0476,321.734 96.0476,316.401 101.5,311.5C 108.066,313.041 114.733,313.874 121.5,314C 122.648,317.719 123.314,321.552 123.5,325.5 Z"/></g>
<g><path style="opacity:1" fill="#020000" d="M 84.5,348.5 C 70.0095,349.496 55.3428,349.829 40.5,349.5C 36.2964,348.121 34.2964,345.121 34.5,340.5C 35.6098,334.175 36.6098,327.842 37.5,321.5C 46.5062,321.334 55.5062,321.5 64.5,322C 65.8333,322.667 67.1667,323.333 68.5,324C 74.217,331.939 79.5503,340.106 84.5,348.5 Z"/></g>
<g><path style="opacity:1" fill="#bc2424" d="M 123.5,325.5 C 124.434,326.568 124.768,327.901 124.5,329.5C 111.483,329.832 98.4829,329.499 85.5,328.5C 85.6236,327.893 85.9569,327.56 86.5,327.5C 98.6554,328.495 110.989,328.829 123.5,328.5C 123.5,327.5 123.5,326.5 123.5,325.5 Z"/></g>
<g><path style="opacity:1" fill="#420c0c" d="M 125.5,336.5 C 112.323,336.171 99.3226,336.505 86.5,337.5C 85.9569,337.44 85.6236,337.107 85.5,336.5C 98.9941,335.175 112.327,335.175 125.5,336.5 Z"/></g>
<g><path style="opacity:1" fill="#040000" d="M 125.5,336.5 C 127.486,341.407 126.486,345.574 122.5,349C 112.816,349.832 103.149,349.665 93.5,348.5C 91.4057,344.636 89.0723,340.969 86.5,337.5C 99.3226,336.505 112.323,336.171 125.5,336.5 Z"/></g>
<g><path style="opacity:1" fill="#7d1717" d="M 84.5,348.5 C 85.0431,348.56 85.3764,348.893 85.5,349.5C 70.3386,350.826 55.3386,350.826 40.5,349.5C 55.3428,349.829 70.0095,349.496 84.5,348.5 Z"/></g>
</svg>
