<svg fill="#fff" viewBox="0 0 116 20" xmlns="http://www.w3.org/2000/svg" class="logo" aria-label="Expressway logotype" data-v-8df21f74=""><path d="M98.899 14.528l3.279.005s-.65-.269-.83-.86c.046-1.087.165-2.516.443-3.634l1.274-5.053c-.944-.239-2.398-.435-3.748-.435-5.785 0-8.744 3.52-8.744 6.824 0 1.952 1.454 3.303 3.67 3.303 1.578 0 3.212-.616 4.434-2.387h.078c-.109.684-.114 1.409-.15 1.942.005-.005-.041.295.294.295zm.19-5.545c-.587 2.47-2.268 3.82-3.65 3.82-1.298 0-1.783-.838-1.783-1.848 0-2.21 2.119-4.618 4.872-4.618.51 0 .917.036 1.196.098l-.634 2.548zm-6.995-4.308c0 .015-.005.031-.01.047-.006.01-4.527 9.811-4.527 9.811h-3.495c-.299 0-.315-.3-.315-.3-.097-1.227-.474-5.83-.474-6.736h-.051l-3.717 7.036h-3.166c-.309 0-.314-.3-.314-.3l-.475-7.85c-.103-1.315-.2-1.3-.567-1.573-.113-.047-.098-.135-.098-.135a.148.148 0 01.13-.135c.05-.005 2.072 0 2.072 0h.933c.082 0 .14.047.14.13l.231 7.683 3.63-7.699s.092-.14.257-.14h2.702s.123-.01.139.14c.129 1.005.892 7.088.856 7.7l2.36-5.976c.47-1.102-.02-1.512-.138-1.563-.006 0-.098-.042-.093-.14 0-.083.067-.14.15-.14l3.7.01c.088 0 .14.047.14.13zm11.605.15a.149.149 0 01-.083-.135c0-.082.067-.155.155-.155h3.196c.072 0 .129.052.144.12.006.01.011.015.016.025l.912 4.603c.222 1.082.372 1.817.47 2.49h.051c.299-.61.598-1.284 1.17-2.366l1.562-2.998c0-.005.006-.005.006-.01.546-1.134.051-1.59.051-1.59a.153.153 0 01-.082-.134c0-.083.067-.155.154-.155h3.527c.082 0 .154.067.154.155 0 .031-.01.057-.026.078l-3.907 7.077c-1.47 2.408-2.655 4.112-4.439 5.473-1.315 1.005-2.774 1.523-3.573 1.688a.25.25 0 01-.062.01c-.072 0-.103 0-.144-.119l-.773-1.765c0-.01-.005-.02-.005-.031a.15.15 0 01.103-.145c.541-.166 1.325-.42 1.995-.839.82-.471 1.376-1.165 1.923-1.983.103-.145.103-.27.051-.45l-1.804-7.296c-.402-1.429-.742-1.548-.742-1.548zM59.053 14.581c-1.686-.041-3.088-.305-3.836-.72a.155.155 0 01-.04-.041l.83-2.149a.17.17 0 01.025-.057c.845.337 2.248.72 3.449.72 1.103 0 1.268-.42 1.268-.673 0-.435-.407-.735-1.51-1.108-1.181-.425-2.748-1.15-2.748-2.605 0-2.091 2.103-3.443 5.351-3.443 1.206 0 2.335.171 3.098.471.01.006.047.016.01.11l-.721 1.889c-.026.072-.088.176-.134.176-.005 0-.016 0-.026-.005-.675-.254-1.562-.394-2.495-.394-1.103 0-1.335.368-1.335.673 0 .233.175.56 1.552 1.046 1 .342 2.86.974 2.86 2.646 0 2.133-2.087 3.464-5.448 3.464h-.15zm9.445 0c3.36 0 5.449-1.325 5.449-3.464 0-1.672-1.861-2.304-2.861-2.646-1.377-.486-1.552-.813-1.552-1.046 0-.305.232-.673 1.335-.673.933 0 1.82.14 2.495.394.01.005.02.005.026.005.052 0 .108-.104.134-.176l.722-1.89c.036-.093 0-.103-.01-.109-.764-.3-1.893-.47-3.099-.47-3.253 0-5.351 1.35-5.351 3.442 0 1.45 1.567 2.18 2.748 2.605 1.098.373 1.51.673 1.51 1.108 0 .248-.165.673-1.273.673-1.201 0-2.604-.383-3.45-.72 0 0-.01.01-.025.057l-.83 2.149c0 .01.02.031.041.041.753.415 2.15.679 3.836.72h.155zM44.49 7.182l1.185-2.553c.02-.04.016-.062.016-.062 0-.01-.042-.026-.072-.026-.114-.005-.212-.005-.32-.005h-.113l-.696 2.646zm1.154-2.64c-.113-.006-.211-.006-.32-.006h-.113c-1.727 0-2.84.383-3.614 1.18l-.2.208.01-.29a.814.814 0 00-.227-.632c-.418-.435-1.31-.47-1.572-.47h-1.722c-.088 0-.155.05-.155.139 0 .057.03.098.082.13 0 0 .006 0 .01.005.006 0 .006 0 .011.005.088.041.402.352.16 1.569-.083.409-.315 1.511-1.052 4.499l-.892 3.62s0 .025.006.035c.005.006.025.016.067.016h3.263c.015 0 .051 0 .067-.073l.974-3.551c.727-3.03 2.614-3.708 4.099-3.728l1.196-2.569c.02-.041.015-.062.015-.062-.026-.01-.062-.026-.093-.026zm8.682 9.252c.067-.026.062-.098.057-.13l-.196-2.112c-.005-.052-.016-.052-.026-.052a.122.122 0 00-.046.01c-.98.379-2.083.56-3.382.56-1.026 0-1.794-.181-2.279-.539a1.472 1.472 0 01-.48-.647l-.05-.15.159.005c.273.005.541.01.804.01 4.686 0 6.965-1.025 6.965-3.127 0-2.288-2.402-3.101-4.46-3.101-4.624 0-7.119 2.982-7.119 5.794 0 2.76 1.933 4.276 5.439 4.276.613-.005 2.784-.062 4.614-.797zm-2.207-6.317v.02c0 .69-.886.907-3.655.907h-.134l.026-.13c.113-.574.861-1.636 2.5-1.636.8-.005 1.263.503 1.263.84zm-15.657.647c0 3.164-2.68 6.431-7.17 6.431-1.063 0-1.903-.212-2.3-.388l-.02-.01h-.155l-.34 1.16-.964 3.551c-.01.052-.031.073-.062.073h-3.46c-.036 0-.051-.01-.051-.01l.33-1.704h1.804c.145-.021.206-.083.232-.135.062-.114.005-.243 0-.259l-1.448-2.283c.01-.042.02-.078.025-.12 0-.01-.005-.02 0-.02l.13-.518c.592-2.537 1.793-7.466 1.804-7.512.324-1.383-.196-1.58-.196-1.58-.047-.026-.088-.067-.088-.13 0-.082.067-.134.15-.134h1.763c.546 0 1.34.093 1.789.637.185.223.227.513.154.86l-.082.372.268-.274c.995-1.025 2.449-1.59 3.975-1.59 2.381-.005 3.913 1.393 3.913 3.583zm-3.65.218c0-.829-.453-1.72-1.732-1.72-1.474 0-2.778 1.3-3.248 3.237l-.412 1.884.057.042c.453.336 1.046.502 1.763.502 2.052.005 3.573-1.983 3.573-3.945zM18.709 4.536H18.367c-.087 0-.154.052-.154.135 0 .057.025.093.077.124 0 0 .005 0 .01.005 0 0 .005 0 .01.006.062.025.48.352.186.662-.433.456-.84.89-.84.89l1.778 2.73 4.46-4.552h-5.186zm4.547 11.883l-.939-1.548-5.856-9.335c-.737-1.015-1.66-.994-1.66-.994l-3.202.01a.139.139 0 00-.139.14c0 .052.031.098.077.124l.006.005c.34.238.52.45 1.34 1.574.211.295 1.583 2.454 1.877 2.988l-1.95 2.04-.623.647H5.02c-.428 0-.314-.316-.314-.316l.65-2.604 3.335.005.66-2.511-3.388-.016.717-2.91c.077-.31.304-.3.304-.3h4.506l.655-2.485H.705a.15.15 0 00-.15.15c0 .052.031.098.072.124.568.42 2.083 1.165 1.264 5.002L.04 14.017l-.026.114c-.093.383.31.409.31.409h12.49c.985 0 1.552-.544 1.552-.544.211-.202.505-.513.804-.854l1.217-1.222c1.577 2.614 1.577 2.614 2.526 4.11.392.622.392.622 1.35.622h2.857a.152.152 0 00.154-.155c.01-.026-.005-.057-.02-.078z"></path></svg>